<svg width="1440" height="1024" viewBox="0 0 1440 1024" fill="none" xmlns="http://www.w3.org/2000/svg">
<g id="Desktop - 1" clip-path="url(#clip0)">
<g id="Desktop - 1 1">
<g id="Desktop - 1_2">
<g id="wm">
<g id="wm_2" filter="url(#filter0_i)">
<path id="Vector" d="M656.934 442.963C644.655 463.234 630.21 483.796 613.598 504.646C596.986 524.918 579.651 543.162 561.594 559.38C560.872 560.538 559.067 562.565 556.177 565.461C553.288 567.778 550.76 568.647 548.594 568.067C547.149 566.909 546.788 564.882 547.51 561.986C548.233 559.09 548.955 556.773 549.677 555.036C553.289 545.769 558.706 533.606 565.928 518.547C573.151 503.488 580.735 491.325 588.68 482.058C590.846 479.162 595.18 471.053 601.68 457.732C608.903 444.411 615.764 429.642 622.265 413.424C628.765 396.628 633.46 380.411 636.349 364.773C639.96 349.134 639.599 337.551 635.266 330.021C635.266 330.021 635.266 329.153 635.266 327.415V326.546C638.877 326.546 641.405 327.705 642.85 330.021C650.795 337.551 656.573 346.239 660.184 356.085C664.517 365.931 667.045 376.067 667.768 386.492C668.49 396.917 667.768 407.343 665.601 417.768C664.156 427.614 661.267 436.013 656.934 442.963ZM692.686 390.836C700.631 402.42 702.798 416.899 699.186 434.275C696.297 451.071 690.519 468.447 681.852 486.402C673.907 503.777 664.518 520.574 653.684 536.791C643.572 552.429 635.266 565.171 628.765 575.018C617.931 591.814 604.569 608.9 588.68 626.276C573.512 643.072 559.428 658.131 546.427 671.452C542.816 675.507 539.565 677.534 536.676 677.534C535.232 676.375 534.509 674.927 534.509 673.19C535.232 671.452 535.954 669.715 536.676 667.977C548.233 637.859 562.678 610.058 580.012 584.574C597.347 558.511 615.403 531.579 634.182 503.778C646.461 486.402 657.656 468.447 667.768 449.913C677.879 431.379 684.38 411.108 687.269 389.098C687.269 386.782 687.991 385.623 689.436 385.623C690.158 386.782 690.88 387.65 691.602 388.23C692.325 388.809 692.686 389.678 692.686 390.836ZM404.501 442.963C392.223 463.234 377.778 483.796 361.166 504.646C344.553 524.918 327.219 543.162 309.162 559.38C308.44 560.538 306.634 562.565 303.745 565.461C300.856 567.778 298.328 568.647 296.162 568.067C294.717 566.909 294.356 564.882 295.078 561.986C295.801 559.09 296.523 556.773 297.245 555.036C300.856 545.769 306.273 533.606 313.496 518.547C320.719 503.488 328.302 491.325 336.247 482.058C338.414 479.162 342.748 471.053 349.248 457.732C356.471 444.411 363.332 429.642 369.833 413.424C376.333 396.628 381.389 380.411 385 364.773C388.612 349.134 388.251 337.551 383.917 330.021C383.195 329.442 382.834 328.573 382.834 327.415C382.834 326.836 383.195 326.546 383.917 326.546C386.806 326.546 388.973 327.705 390.417 330.021C398.362 337.551 404.14 346.239 407.752 356.085C412.085 365.931 414.613 376.067 415.335 386.492C416.058 396.917 415.336 407.343 413.169 417.768C411.724 427.614 408.835 436.013 404.501 442.963ZM438.087 369.116C442.421 369.116 446.754 373.46 451.088 382.148C456.144 390.257 459.755 402.999 461.922 420.375C465.533 441.804 464.811 464.103 459.755 487.271C455.421 509.859 449.643 531.289 442.421 551.561C442.421 552.719 442.06 554.746 441.337 557.642C440.615 560.538 438.809 562.275 435.92 562.855C434.476 562.855 433.031 561.407 431.586 558.511C430.142 555.615 429.42 553.588 429.42 552.429C427.253 546.058 425.447 538.529 424.003 529.841C422.558 520.574 421.836 511.307 421.836 502.04C417.502 510.149 413.169 517.968 408.835 525.497C404.502 533.027 400.168 539.977 395.834 546.348V555.036C396.557 580.52 403.057 606.583 415.335 633.226C427.614 659.289 448.56 681.588 478.173 700.122C475.284 694.33 473.117 690.276 471.672 687.959C470.95 685.063 467.339 679.851 460.838 672.321C457.227 668.846 453.977 664.212 451.088 658.42C448.199 652.049 445.671 646.258 443.504 641.045C441.337 635.253 439.893 630.33 439.17 626.276C439.17 622.221 440.254 620.194 442.421 620.194C446.032 619.036 449.282 620.484 452.171 624.538C455.782 628.592 458.671 632.357 460.838 635.832C459.394 623.669 460.116 611.506 463.005 599.343C465.894 586.601 468.061 575.017 469.506 564.592C471.672 549.533 473.478 536.212 474.923 524.628C476.367 512.465 477.451 497.986 478.173 481.189C479.617 463.234 479.617 443.542 478.173 422.112C476.728 400.682 470.95 379.831 460.838 359.56C459.394 357.822 459.755 356.954 461.922 356.954C463.366 356.954 464.45 357.243 465.172 357.822C465.894 358.402 466.978 358.981 468.422 359.56C477.812 365.352 485.395 373.46 491.174 383.886C497.674 393.732 502.369 405.026 505.258 417.768C508.869 429.931 511.036 442.963 511.758 456.863C513.203 470.185 513.925 482.927 513.925 495.09C524.759 479.452 535.954 463.814 547.51 448.176C559.067 432.537 569.178 417.189 577.845 402.13C587.235 386.492 594.458 371.144 599.514 356.085C604.569 341.026 606.736 326.257 606.014 311.777C606.014 310.039 606.375 309.171 607.097 309.171C609.264 308.591 610.348 309.46 610.348 311.777C621.182 330.89 624.432 350.293 620.098 369.985C616.487 389.678 608.903 409.37 597.347 429.062C586.513 448.755 573.512 468.447 558.344 488.139C543.177 507.253 529.815 526.366 518.259 545.479C503.813 569.805 493.34 596.448 486.84 625.407C481.062 654.366 483.229 684.774 493.34 716.629V717.498C492.618 718.077 492.257 718.366 492.257 718.366C490.812 718.366 489.729 718.077 489.007 717.498C488.285 717.498 487.562 717.208 486.84 716.629C484.673 714.312 482.145 711.995 479.256 709.679C477.089 707.362 473.478 705.045 468.422 702.728C435.198 688.828 411.002 672.031 395.834 652.339C381.389 632.067 371.999 610.927 367.666 588.918C356.11 603.398 343.47 617.878 329.747 632.357C316.746 646.837 304.829 659.868 293.995 671.452C290.383 675.507 287.133 677.534 284.244 677.534C282.8 676.375 282.077 674.927 282.077 673.19C282.8 671.452 283.522 669.715 284.244 667.977C295.8 637.859 310.607 609.479 328.664 582.837C346.72 555.615 365.499 528.393 385 501.171C390.779 493.063 396.196 485.243 401.251 477.714C407.03 469.605 412.085 461.497 416.419 453.388C421.475 445.28 425.447 436.302 428.336 426.456C431.948 416.61 434.837 405.316 437.004 392.574C437.726 388.519 437.365 383.596 435.92 377.804C435.198 372.012 435.92 369.116 438.087 369.116ZM209.49 417.768C209.49 439.198 208.045 461.786 205.156 485.533C202.267 509.28 197.211 531.289 189.988 551.561C189.988 552.719 189.627 554.746 188.905 557.642C188.183 560.538 186.377 562.275 183.488 562.855C182.044 562.855 180.599 561.407 179.154 558.511C177.71 555.615 176.988 553.588 176.988 552.429C175.543 547.796 174.099 542.294 172.654 535.922C171.932 528.972 171.21 522.022 170.487 515.072C169.765 508.121 169.043 501.171 168.32 494.221C168.32 487.271 168.682 481.189 169.404 475.977C170.126 472.501 169.765 463.814 168.32 449.913C166.876 436.013 164.709 420.954 161.82 404.736C158.931 388.519 154.958 372.881 149.903 357.822C144.847 342.763 138.707 332.628 131.485 327.415C130.04 326.257 128.957 325.098 128.234 323.94C128.234 322.202 128.596 321.333 129.318 321.333C130.763 321.333 132.207 321.913 133.651 323.071C135.818 323.65 137.624 323.94 139.068 323.94C149.18 327.994 158.57 333.786 167.237 341.316C175.904 348.845 183.127 356.954 188.905 365.641C195.405 374.329 200.461 383.307 204.073 392.574C207.684 401.841 209.49 410.239 209.49 417.768ZM357.915 313.515C368.749 332.628 371.999 352.03 367.666 371.723C364.055 390.836 356.471 410.239 344.915 429.931C334.081 449.044 321.08 468.447 305.912 488.139C290.745 507.253 277.383 526.366 265.826 545.479C251.381 569.805 240.908 596.448 234.408 625.407C228.63 654.366 230.796 684.774 240.908 716.629V717.498C240.186 718.077 239.825 718.366 239.825 718.366C238.38 718.366 237.297 718.077 236.575 717.498C235.852 717.498 235.491 717.208 235.491 716.629C233.324 714.312 230.796 711.995 227.907 709.679C225.018 707.362 221.046 705.045 215.99 702.728C195.044 694.041 177.71 683.905 163.987 672.321C150.264 660.737 139.43 648.285 131.485 634.963C124.262 621.642 118.845 607.742 115.234 593.262C112.345 578.782 110.9 564.303 110.9 549.823C110.178 528.972 110.539 508.121 111.984 487.271C114.15 465.841 115.234 445.28 115.234 425.587C115.956 405.895 114.873 387.071 111.984 369.116C109.095 350.582 102.955 333.786 93.5657 318.727C93.5657 317.569 93.5657 316.99 93.5657 316.99C95.0102 315.831 96.4549 315.831 97.8994 316.99C99.344 317.569 100.427 317.858 101.15 317.858C119.929 331.759 132.568 347.976 139.068 366.51C145.569 385.044 149.18 404.736 149.903 425.587C150.625 446.438 149.541 467.868 146.652 489.877C143.763 511.886 142.68 533.606 143.402 555.036C144.125 567.778 145.93 580.81 148.819 594.131C151.708 607.452 156.403 620.484 162.903 633.226C169.404 645.389 177.71 657.262 187.822 668.846C198.656 680.43 211.295 690.855 225.741 700.122C222.852 694.33 220.685 690.276 219.24 687.959C217.796 685.063 214.184 679.851 208.406 672.321C204.795 668.846 201.545 664.212 198.656 658.42C195.767 652.049 193.239 646.258 191.072 641.045C188.905 635.253 187.46 630.33 186.738 626.276C186.738 622.221 187.822 620.194 189.988 620.194C193.6 619.036 196.85 620.484 199.739 624.538C203.35 628.592 206.239 632.357 208.406 635.832C207.684 623.669 208.406 611.506 210.573 599.343C213.462 586.601 215.629 575.017 217.073 564.592C219.24 549.533 221.046 536.212 222.49 524.628C223.935 512.465 225.018 497.986 225.741 481.189C227.185 463.234 227.185 443.542 225.741 422.112C225.018 400.682 219.24 379.831 208.406 359.56C208.406 357.822 208.767 356.954 209.49 356.954C210.934 356.954 212.018 357.243 212.74 357.822C213.462 358.402 214.545 358.981 215.99 359.56C225.379 365.352 232.963 373.46 238.741 383.886C245.242 393.732 249.936 405.026 252.825 417.768C256.437 429.931 258.604 442.963 259.326 456.863C260.77 470.185 261.493 482.927 261.493 495.09C272.327 479.452 283.522 463.814 295.078 448.176C306.635 432.537 316.746 417.189 325.413 402.13C334.803 386.492 342.025 371.144 347.081 356.085C352.137 341.026 354.304 326.257 353.582 311.777C353.582 310.039 354.304 309.171 355.749 309.171C356.471 308.591 356.832 308.881 356.832 310.039C357.554 311.198 357.915 312.356 357.915 313.515ZM270.16 716.629C270.16 718.946 269.438 720.104 267.993 720.104C267.271 720.104 265.826 719.525 263.659 718.366C262.215 717.787 260.77 717.208 259.326 716.629C253.548 713.154 249.214 708.231 246.325 701.86C244.158 695.489 243.797 685.932 245.242 673.19C245.242 667.977 245.964 662.185 247.409 655.814C248.853 649.443 250.659 643.651 252.825 638.439C254.992 632.647 257.159 628.303 259.326 625.407C261.493 621.932 263.66 620.484 265.826 621.063C269.438 622.221 270.882 625.986 270.16 632.357C270.16 638.149 270.16 642.493 270.16 645.389C269.438 660.448 269.076 674.059 269.076 686.221C269.076 698.384 269.438 708.52 270.16 716.629ZM522.592 716.629C522.592 718.946 521.87 720.104 520.425 720.104C519.703 720.104 518.258 719.525 516.092 718.366C514.647 717.787 513.203 717.208 511.758 716.629C505.98 713.154 501.646 708.231 498.757 701.86C496.591 695.489 496.229 685.932 497.674 673.19C497.674 667.977 498.396 662.185 499.841 655.814C501.285 649.443 503.091 643.651 505.258 638.439C507.424 632.647 509.591 628.303 511.758 625.407C513.925 621.932 516.092 620.484 518.259 621.063C521.87 622.221 523.314 625.986 522.592 632.357C522.592 638.149 522.592 642.493 522.592 645.389C521.87 660.448 521.509 674.059 521.509 686.221C521.509 698.384 521.87 708.52 522.592 716.629ZM996.376 496.827C986.265 531.578 979.403 567.778 975.792 605.425C972.181 643.072 975.07 679.561 984.459 714.891C985.181 716.05 984.82 717.208 983.376 718.366C982.653 720.104 981.57 719.525 980.125 716.629C967.847 697.516 959.18 678.113 954.124 658.42C949.79 638.728 947.624 619.325 947.624 600.212C947.624 580.52 949.429 560.827 953.04 541.135C956.652 521.443 961.346 502.04 967.125 482.927C967.847 480.61 969.292 475.977 971.458 469.026C973.625 461.497 975.07 454.257 975.792 447.307C977.236 439.777 977.236 433.985 975.792 429.931C974.347 425.877 970.014 425.877 962.791 429.931C946.179 439.777 930.65 452.23 916.205 467.289C902.482 481.768 891.287 495.958 882.619 509.859C881.897 511.017 880.091 514.492 877.202 520.284C875.036 525.497 872.508 531.289 869.619 537.66C867.452 544.031 865.285 550.402 863.118 556.773C860.951 562.565 859.507 566.33 858.785 568.067C853.007 586.022 845.784 603.108 837.117 619.325C828.449 635.543 821.227 650.601 815.449 664.502C813.282 670.294 811.837 672.9 811.115 672.321C807.504 672.321 805.698 669.715 805.698 664.502C802.087 636.122 804.976 608.9 814.365 582.837C824.477 556.194 835.311 528.972 846.867 501.171C854.09 483.216 860.59 465.551 866.368 448.176C872.869 430.221 875.758 410.528 875.036 389.098C874.313 374.04 881.175 359.27 895.62 344.791C910.788 330.311 933.178 318.148 962.791 308.302C980.125 302.51 996.376 299.904 1011.54 300.483C1026.71 301.062 1040.8 303.668 1053.8 308.302C1066.8 312.935 1078.35 319.596 1088.47 328.284C1098.58 336.972 1106.88 346.528 1113.38 356.954C1117.72 350.582 1124.22 343.922 1132.88 336.972C1141.55 329.442 1151.66 323.071 1163.22 317.858C1175.5 312.646 1188.86 308.881 1203.31 306.564C1218.47 303.668 1235.09 303.379 1253.14 305.695C1266.14 307.433 1277.34 310.908 1286.73 316.121C1296.84 321.334 1305.51 327.415 1312.73 334.365C1320.67 340.736 1326.81 347.397 1331.15 354.347C1335.48 361.297 1338.73 367.089 1340.9 371.723C1348.84 390.836 1352.81 412.266 1352.81 436.013C1353.54 459.759 1350.65 481.189 1344.15 500.302C1333.31 531.579 1320.31 559.379 1305.15 583.705C1290.7 608.031 1280.95 629.751 1275.89 648.864C1273.73 655.235 1272.28 658.42 1271.56 658.42C1268.67 658.42 1266.87 657.262 1266.14 654.945C1266.14 652.629 1265.78 650.312 1265.06 647.995C1263.62 635.832 1265.42 620.484 1270.48 601.95C1276.25 582.837 1282.76 562.565 1289.98 541.135C1297.2 519.126 1303.7 496.827 1309.48 474.239C1315.26 451.651 1317.78 430.8 1317.06 411.687C1316.34 391.994 1310.92 374.908 1300.81 360.429C1290.7 345.949 1273.37 336.103 1248.81 330.89C1229.31 326.836 1211.97 326.836 1196.81 330.89C1182.36 334.365 1170.08 338.42 1159.97 343.053C1144.8 351.162 1135.05 359.849 1130.72 369.116C1126.38 377.804 1124.22 386.203 1124.22 394.311C1136.5 376.356 1152.75 362.166 1172.97 351.741C1193.19 340.736 1217.03 338.709 1244.48 345.659C1262.53 350.293 1275.17 358.981 1282.39 371.723C1290.34 384.465 1294.67 398.655 1295.39 414.293C1296.12 429.931 1293.95 445.569 1288.89 461.207C1284.56 476.845 1279.14 489.877 1272.64 500.302C1271.92 501.461 1270.12 504.357 1267.23 508.99C1264.34 513.045 1261.09 514.782 1257.48 514.203C1256.75 514.203 1256.39 511.886 1256.39 507.253C1257.11 502.619 1257.48 499.144 1257.48 496.827C1259.64 489.877 1261.09 481.768 1261.81 472.501C1262.53 463.234 1262.53 453.678 1261.81 443.832C1261.81 433.985 1261.09 424.429 1259.64 415.162C1258.2 405.895 1256.03 398.076 1253.14 391.705C1249.53 383.596 1243.75 378.383 1235.81 376.067C1228.59 373.171 1220.64 372.302 1211.97 373.46C1203.31 374.619 1194.64 376.936 1185.97 380.411C1178.03 383.886 1171.17 387.65 1165.39 391.705C1149.5 402.709 1139.75 412.845 1136.14 422.112C1132.52 430.8 1129.63 440.936 1127.47 452.519C1136.14 440.936 1146.61 430.221 1158.89 420.375C1171.89 409.949 1184.53 401.551 1196.81 395.18C1203.31 392.863 1208.72 391.994 1213.06 392.574C1218.11 393.153 1222.08 394.89 1224.97 397.786C1228.59 400.103 1231.11 403.288 1232.56 407.343C1234 410.818 1235.09 414.004 1235.81 416.899C1237.97 436.013 1236.89 452.809 1232.56 467.289C1228.95 481.768 1224.25 496.827 1218.47 512.465C1213.42 527.524 1209.08 544.61 1205.47 563.723C1202.58 582.257 1203.31 605.425 1207.64 633.226C1211.25 653.497 1218.83 671.742 1230.39 687.959C1241.95 704.176 1256.39 714.312 1273.73 718.366C1278.78 719.525 1279.87 720.394 1276.98 720.973C1274.81 721.552 1273 721.842 1271.56 721.842C1258.56 720.683 1246.28 716.629 1234.72 709.679C1223.17 702.728 1212.7 694.041 1203.31 683.615C1194.64 673.19 1187.42 661.606 1181.64 648.864C1175.86 636.122 1172.61 623.38 1171.89 610.638C1169.72 584.574 1171.53 559.959 1177.3 536.791C1183.8 513.044 1189.94 492.773 1195.72 475.977C1197.17 471.343 1198.61 465.551 1200.06 458.601C1202.22 451.071 1202.94 444.7 1202.22 439.488C1202.22 434.275 1200.06 431.379 1195.72 430.8C1191.39 429.642 1184.17 432.827 1174.05 440.356C1159.61 450.782 1146.97 462.076 1136.14 474.239C1125.3 486.402 1117.36 500.013 1112.3 515.072C1095.69 563.144 1071.85 609.19 1040.8 653.208C1039.35 655.525 1037.55 657.841 1035.38 660.158C1033.21 661.896 1031.77 662.475 1031.05 661.896C1029.6 661.896 1029.24 660.448 1029.96 657.552C1030.68 654.656 1031.41 651.76 1032.13 648.864C1036.46 628.592 1041.88 608.9 1048.38 589.787C1054.88 570.674 1061.02 551.271 1066.8 531.579C1073.3 511.307 1078.71 490.746 1083.05 469.895C1088.1 448.465 1090.99 425.587 1091.72 401.261C1090.27 393.153 1088.1 384.755 1085.22 376.067C1083.05 367.379 1075.83 357.243 1063.55 345.659C1049.1 332.917 1032.13 326.257 1012.63 325.677C993.126 325.098 977.236 326.546 964.958 330.021C957.013 331.759 948.346 334.944 938.956 339.578C930.289 344.211 921.983 349.714 914.038 356.085C906.815 362.456 900.676 369.985 895.62 378.673C891.287 386.782 890.203 395.759 892.37 405.605C900.315 394.022 909.343 382.727 919.455 371.723C930.289 360.718 944.012 352.32 960.624 346.528C965.68 344.791 972.18 343.343 980.125 342.184C988.07 340.447 996.376 339.578 1005.04 339.578C1013.71 338.999 1022.38 339.868 1031.05 342.184C1039.71 344.501 1047.3 348.845 1053.8 355.216C1065.35 366.8 1071.49 377.225 1072.21 386.492C1073.66 395.759 1074.02 405.026 1073.3 414.293C1071.85 431.09 1068.6 447.017 1063.55 462.076C1058.49 476.556 1051.99 490.456 1044.05 503.778C1043.32 505.515 1041.52 508.411 1038.63 512.465C1035.74 515.94 1033.57 517.678 1032.13 517.678C1030.68 517.099 1029.6 514.782 1028.88 510.728C1028.88 506.094 1029.6 502.909 1031.05 501.171C1031.77 494.8 1032.85 485.533 1034.3 473.37C1035.74 460.628 1036.46 447.596 1036.46 434.275C1037.18 420.375 1036.46 407.922 1034.3 396.917C1032.13 385.334 1027.43 377.225 1020.21 372.592C1013.71 368.537 1003.96 367.379 990.959 369.116C977.959 370.854 966.402 374.908 956.291 381.279C946.179 387.65 937.512 393.732 930.289 399.524C923.789 405.316 918.372 411.397 914.038 417.768C909.704 423.56 905.732 430.221 902.121 437.75C899.232 444.7 896.704 453.099 894.537 462.945C903.204 449.623 913.316 437.171 924.872 425.587C936.428 414.003 950.512 404.157 967.125 396.049C978.681 389.678 987.709 387.071 994.21 388.23C1000.71 389.388 1005.04 392.574 1007.21 397.786C1010.1 402.999 1011.18 409.66 1010.46 417.768C1010.46 425.877 1010.1 433.406 1009.38 440.356C1007.93 449.623 1006.13 459.18 1003.96 469.026C1001.79 478.873 999.265 488.139 996.376 496.827ZM1306.23 718.366C1306.23 718.366 1304.42 718.366 1300.81 718.366C1299.37 718.366 1297.56 718.077 1295.39 717.498C1285.28 715.76 1274.45 712.285 1262.89 707.072C1251.34 701.28 1241.59 690.855 1233.64 675.796C1230.75 670.004 1228.59 662.475 1227.14 653.208C1225.7 643.941 1224.97 634.963 1224.97 626.276C1224.97 617.588 1225.7 610.058 1227.14 603.687C1228.59 597.316 1230.75 594.42 1233.64 595C1234.36 595 1235.09 596.447 1235.81 599.343C1237.25 601.66 1238.34 604.556 1239.06 608.031C1239.78 611.506 1240.5 614.981 1241.22 618.457C1241.95 621.932 1242.31 624.538 1242.31 626.276C1243.75 634.384 1245.56 642.493 1247.73 650.602C1249.89 658.131 1252.78 665.081 1256.39 671.452C1260 680.14 1266.5 689.407 1275.89 699.253C1286.01 708.52 1295.03 713.733 1302.98 714.891C1306.59 716.05 1307.67 717.208 1306.23 718.366ZM1014.79 716.629C1016.24 720.683 1016.24 722.71 1014.79 722.71C1011.18 722.71 1008.29 721.262 1006.13 718.366C1002.52 714.891 998.904 709.968 995.293 703.597C991.682 696.647 990.237 685.063 990.959 668.846C990.959 662.475 991.682 654.945 993.126 646.258C994.571 636.991 996.015 628.592 997.46 621.063C999.627 612.954 1001.79 606.294 1003.96 601.081C1006.13 595.868 1008.65 593.552 1011.54 594.131C1012.27 594.131 1012.63 595.579 1012.63 598.475C1013.35 600.791 1013.71 603.687 1013.71 607.162C1014.43 610.638 1014.79 614.113 1014.79 617.588C1014.79 620.484 1014.79 622.511 1014.79 623.669C1014.79 632.936 1014.43 641.335 1013.71 648.864C1012.99 655.814 1012.63 663.344 1012.63 671.452C1012.63 682.457 1012.63 691.724 1012.63 699.253C1012.63 706.783 1013.35 712.575 1014.79 716.629ZM854.451 428.194C846.506 450.203 835.672 471.922 821.949 493.352C808.948 514.782 798.114 535.343 789.447 555.036C788.725 556.194 787.28 558.511 785.114 561.986C783.669 564.882 781.502 566.04 778.613 565.461C777.168 564.882 776.085 563.144 775.363 560.248C775.363 556.773 775.363 554.167 775.363 552.429C775.363 543.162 777.168 530.999 780.78 515.94C785.113 500.302 789.447 487.56 793.781 477.714C795.225 474.239 797.753 465.551 801.365 451.651C805.698 437.171 809.309 421.533 812.199 404.736C815.81 387.94 817.977 371.723 818.699 356.085C820.143 340.447 818.338 329.153 813.282 322.202C810.393 318.148 810.393 316.121 813.282 316.121C815.449 316.121 818.338 317.569 821.949 320.465C830.616 326.836 837.478 334.655 842.534 343.922C848.312 353.189 852.284 363.035 854.451 373.46C857.34 383.307 858.423 393.153 857.701 402.999C857.701 412.845 856.618 421.243 854.451 428.194ZM782.947 717.498C760.556 705.335 743.222 692.013 730.943 677.534C719.387 663.054 711.442 647.995 707.109 632.357C702.775 616.719 700.969 600.791 701.692 584.574C703.136 568.357 706.025 552.429 710.359 536.791C716.137 515.94 723.36 495.379 732.027 475.108C741.416 454.257 750.084 434.275 758.028 415.162C766.696 395.469 773.196 376.356 777.53 357.822C782.586 339.288 783.308 321.623 779.697 304.827C779.697 302.51 780.058 301.352 780.78 301.352C782.224 301.352 784.03 302.8 786.197 305.695C799.198 324.229 805.337 343.343 804.615 363.035C803.892 382.727 799.92 402.999 792.697 423.85C785.475 444.121 776.446 464.972 765.612 486.402C755.501 507.253 747.556 528.393 741.777 549.823C738.166 563.144 735.638 577.334 734.194 592.393C733.471 606.873 734.916 621.353 738.527 635.832C742.139 650.312 747.917 664.502 755.862 678.403C764.529 692.303 776.085 704.755 790.531 715.76C793.42 716.918 794.142 718.077 792.697 719.235C791.253 720.394 789.447 720.394 787.28 719.235C785.836 718.656 784.391 718.077 782.947 717.498ZM824.116 720.973C821.949 722.131 819.06 721.262 815.449 718.366C807.504 713.733 799.559 708.81 791.614 703.597C784.391 698.384 777.168 689.986 769.946 678.403C767.057 674.348 764.89 669.135 763.445 662.764C762.001 656.393 761.279 650.312 761.279 644.52C761.279 638.149 761.64 632.936 762.362 628.882C763.807 624.828 765.612 622.801 767.779 622.801C770.668 623.38 772.835 626.565 774.279 632.357C776.446 638.149 778.252 641.914 779.697 643.651C782.586 650.022 785.113 656.104 787.28 661.896C789.447 667.108 791.975 672.321 794.864 677.534C799.198 685.642 803.531 692.593 807.865 698.385C812.198 704.176 817.254 709.968 823.032 715.76C823.755 716.339 824.477 717.208 825.199 718.366C825.922 719.525 825.56 720.394 824.116 720.973Z" fill="url(#paint0_linear)"/>
</g>
</g>
</g>
</g>
</g>
<defs>
<filter id="filter0_i" x="93.5657" y="300.404" width="1259.36" height="426.306" filterUnits="userSpaceOnUse" color-interpolation-filters="sRGB">
<feFlood flood-opacity="0" result="BackgroundImageFix"/>
<feBlend mode="normal" in="SourceGraphic" in2="BackgroundImageFix" result="shape"/>
<feColorMatrix in="SourceAlpha" type="matrix" values="0 0 0 0 0 0 0 0 0 0 0 0 0 0 0 0 0 0 127 0" result="hardAlpha"/>
<feOffset dy="4"/>
<feGaussianBlur stdDeviation="2"/>
<feComposite in2="hardAlpha" operator="arithmetic" k2="-1" k3="1"/>
<feColorMatrix type="matrix" values="0 0 0 0 0 0 0 0 0 0 0 0 0 0 0 0 0 0 0.25 0"/>
<feBlend mode="normal" in2="shape" result="effect1_innerShadow"/>
</filter>
<linearGradient id="paint0_linear" x1="76.2313" y1="514.517" x2="1359.01" y2="514.517" gradientUnits="userSpaceOnUse">
<stop stop-color="#7F5EFF"/>
<stop offset="0.328225" stop-color="#CC68FF"/>
<stop offset="0.666667" stop-color="#D26DE6"/>
<stop offset="1" stop-color="#B391FF"/>
</linearGradient>
<clipPath id="clip0">
<rect width="1440" height="1024" fill="white"/>
</clipPath>
</defs>
</svg>
